<svg xmlns:svg="http://www.w3.org/2000/svg" xmlns="http://www.w3.org/2000/svg" xmlns:xlink="http://www.w3.org/1999/xlink" width="100" height="100" id="svg2" version="1.1"><style>.s0{fill:none;stroke-linecap:round;stroke-width:5;stroke:#000;}.s1{fill:none;stroke-linecap:round;stroke-width:10;stroke:#000;}</style><defs id="defs4"><marker orient="auto" refY="0" refX="0" id="Arrow1Lend"><path id="path3777" d="M0 0 5-5-12.5 0 5 5 0 0z" transform="matrix(-0.8,0,0,-0.8,-10,0)" style="stroke-width:1;stroke:#000"/></marker></defs><metadata id="metadata7"/><g id="layer1" transform="translate(2.1646126,-952.42954)"><g id="cross" class="sprite"><path transform="translate(0,752.36218)" id="path2991" d="m10 210c80 80 80 80 80 80M10 290 90 210" class="s0"/></g><g id="plus" transform="translate(0,100)" class="sprite"><path transform="translate(0,752.36218)" id="path2995" d="m50 125c0 50 0 50 0 50M25 150l50 0M25 150l50 0M25 150l50 0M25 150l50 0M25 150l50 0M25 150l50 0" class="s1"/></g><g id="arrows" transform="translate(1.350208,202.88859)" class="sprite"><g id="g4405"><path d="m35 777.4c-15 15-15 35 0 50" id="path3767" style="fill:none;stroke-width:5;stroke:#000"/><path d="M42.1 769.4 37.4 785.3 26.9 775.9z" id="path4403" style="fill:#000;stroke:#000"/></g><use height="300" width="100" transform="matrix(-1,0,0,-1,101,1599.7244)" id="use4409" xlink:href="#g4405" y="0" x="0"/></g></g></svg>