<?xml version="1.0" encoding="UTF-8" standalone="no"?>
<!-- Created with Inkscape (http://www.inkscape.org/) -->

<svg
   xmlns:dc="http://purl.org/dc/elements/1.1/"
   xmlns:cc="http://creativecommons.org/ns#"
   xmlns:rdf="http://www.w3.org/1999/02/22-rdf-syntax-ns#"
   xmlns:svg="http://www.w3.org/2000/svg"
   xmlns="http://www.w3.org/2000/svg"
   xmlns:xlink="http://www.w3.org/1999/xlink"
   xmlns:sodipodi="http://sodipodi.sourceforge.net/DTD/sodipodi-0.dtd"
   xmlns:inkscape="http://www.inkscape.org/namespaces/inkscape"
   width="800"
   height="100"
   id="svg3889"
   version="1.1"
   inkscape:version="0.48.2 r9819"
   sodipodi:docname="horiz.svg"
   inkscape:export-filename="/Users/tyler/www/itwaspurple/images/sprites.png"
   inkscape:export-xdpi="45"
   inkscape:export-ydpi="45">
  <defs
     id="defs3891" />
  <sodipodi:namedview
     id="base"
     pagecolor="#ffffff"
     bordercolor="#666666"
     borderopacity="1.0"
     inkscape:pageopacity="0.0"
     inkscape:pageshadow="2"
     inkscape:zoom="0.81125"
     inkscape:cx="350.69337"
     inkscape:cy="50"
     inkscape:document-units="px"
     inkscape:current-layer="layer1"
     showgrid="false"
     inkscape:window-width="1134"
     inkscape:window-height="901"
     inkscape:window-x="513"
     inkscape:window-y="17"
     inkscape:window-maximized="0"
     inkscape:snap-global="false">
    <inkscape:grid
       type="xygrid"
       id="grid4448"
       empspacing="5"
       visible="true"
       enabled="true"
       snapvisiblegridlinesonly="true" />
  </sodipodi:namedview>
  <metadata
     id="metadata3894">
    <rdf:RDF>
      <cc:Work
         rdf:about="">
        <dc:format>image/svg+xml</dc:format>
        <dc:type
           rdf:resource="http://purl.org/dc/dcmitype/StillImage" />
        <dc:title></dc:title>
      </cc:Work>
    </rdf:RDF>
  </metadata>
  <g
     inkscape:label="Layer 1"
     inkscape:groupmode="layer"
     id="layer1"
     transform="translate(0,-952.36218)">
    <g
       id="g4454"
       transform="translate(805.227,0)"
       inkscape:export-xdpi="22.5"
       inkscape:export-ydpi="22.5">
      <rect
         y="952.36218"
         x="0.773"
         height="100"
         width="100.98432"
         id="rect4450"
         style="fill:none;stroke:#000000;stroke-width:1;stroke-linecap:round;stroke-linejoin:miter;stroke-miterlimit:4;stroke-opacity:1;stroke-dasharray:none" />
      <path
         transform="translate(0,952.36218)"
         d="m 55,50 c 0,2.761424 -2.238576,5 -5,5 -2.761424,0 -5,-2.238576 -5,-5 0,-2.761424 2.238576,-5 5,-5 2.761424,0 5,2.238576 5,5 z"
         sodipodi:ry="5"
         sodipodi:rx="5"
         sodipodi:cy="50"
         sodipodi:cx="50"
         id="path4452"
         style="fill:none;stroke:#000000;stroke-width:1;stroke-linecap:round;stroke-linejoin:miter;stroke-miterlimit:4;stroke-opacity:1;stroke-dasharray:none"
         sodipodi:type="arc" />
    </g>
    <g
       id="cross"
       style="stroke-width:5;stroke-miterlimit:4;stroke-dasharray:none">
      <path
         style="font-size:medium;font-style:normal;font-variant:normal;font-weight:normal;font-stretch:normal;text-indent:0;text-align:start;text-decoration:none;line-height:normal;letter-spacing:normal;word-spacing:normal;text-transform:none;direction:ltr;block-progression:tb;writing-mode:lr-tb;text-anchor:start;baseline-shift:baseline;color:#000000;fill:#000000;fill-opacity:1;stroke:none;stroke-width:5;marker:none;visibility:visible;display:inline;overflow:visible;enable-background:accumulate;font-family:Sans;-inkscape-font-specification:Sans"
         d="m 22.54282,968.18742 c 0,0 -4.106479,2.58334 -4.32407,5.95601 0,0 48.794043,51.40507 58.694452,60.10877 1.740731,0 4.426518,-4.9918 4.426518,-4.9918 -19.12845,-14.5781 -58.7969,-61.07298 -58.7969,-61.07298 z"
         id="path4458"
         inkscape:connector-curvature="0"
         sodipodi:nodetypes="ccccc" />
      <path
         style="font-size:medium;font-style:normal;font-variant:normal;font-weight:normal;font-stretch:normal;text-indent:0;text-align:start;text-decoration:none;line-height:normal;letter-spacing:normal;word-spacing:normal;text-transform:none;direction:ltr;block-progression:tb;writing-mode:lr-tb;text-anchor:start;baseline-shift:baseline;color:#000000;fill:#000000;fill-opacity:1;stroke:none;stroke-width:5;marker:none;visibility:visible;display:inline;overflow:visible;enable-background:accumulate;font-family:Sans;-inkscape-font-specification:Sans"
         d="m 78.21875,970.58093 c -17.080925,17.18972 -41.28714,38.56727 -60.543979,58.36807 0,2.3935 4.106479,5.1944 4.106479,5.1944 l 59.129634,-58.47683 c 0,-2.93748 -2.692134,-5.08564 -2.692134,-5.08564 z"
         id="path4460"
         inkscape:connector-curvature="0"
         sodipodi:nodetypes="ccccc" />
    </g>
    <g
       id="g4470"
       style="stroke-width:5;stroke-miterlimit:4;stroke-dasharray:none">
      <path
         style="font-size:medium;font-style:normal;font-variant:normal;font-weight:normal;font-stretch:normal;text-indent:0;text-align:start;text-decoration:none;line-height:normal;letter-spacing:normal;word-spacing:normal;text-transform:none;direction:ltr;block-progression:tb;writing-mode:lr-tb;text-anchor:start;baseline-shift:baseline;color:#000000;fill:#000000;fill-opacity:1;stroke:none;stroke-width:5;marker:none;visibility:visible;display:inline;overflow:visible;enable-background:accumulate;font-family:Sans;-inkscape-font-specification:Sans"
         d="m 146.11526,20.15386 1.23088,27.5 -28.2693,-1.077022 c -0.92316,3.692649 1.69246,6.538603 1.69246,6.538603 l 26.26912,0.153861 c 1.23088,5.077392 -1.23088,27.65386 -1.23088,27.65386 0,0 5.92316,0.307721 6.69246,-0.923162 l 0.0769,-26.499908 28.80781,-0.23079 c 0,0 -0.46158,-5.461582 -1.38474,-6.538604 l -26.88456,0.461581 c -1.07702,-7.846878 0.30772,-28.115441 0.30772,-28.115441 0,0 -6.07702,0 -7.3079,1.077022 z"
         transform="translate(0,952.36218)"
         id="path4466"
         inkscape:connector-curvature="0"
         sodipodi:nodetypes="ccccccccccccc" />
    </g>
    <g
       id="g4856">
      <g
         style="stroke-width:5;stroke-miterlimit:4;stroke-dasharray:none"
         id="g4480">
        <path
           sodipodi:nodetypes="csccscc"
           inkscape:connector-curvature="0"
           id="path4476"
           d="m 233.12978,977.57872 c -9.20647,7.37061 -14.17639,13.35968 -16.25,23.47558 -1.57412,7.6792 -2.29401,23.473 14.59596,32.1278 2.76948,-2.7694 4.89448,-9.6398 4.89448,-9.6398 -10.93544,-5.0431 -14.8482,-11.2614 -14.18272,-19.7739 0.66548,-8.51246 3.79131,-17.07391 12.06709,-23.69942 z"
           style="font-size:medium;font-style:normal;font-variant:normal;font-weight:normal;font-stretch:normal;text-indent:0;text-align:start;text-decoration:none;line-height:normal;letter-spacing:normal;word-spacing:normal;text-transform:none;direction:ltr;block-progression:tb;writing-mode:lr-tb;text-anchor:start;baseline-shift:baseline;color:#000000;fill:#000000;fill-opacity:1;stroke:none;stroke-width:5;marker:none;visibility:visible;display:inline;overflow:visible;enable-background:accumulate;font-family:Sans;-inkscape-font-specification:Sans" />
        <path
           style="fill:#000000;fill-opacity:1;stroke:#000000;stroke-width:1;stroke-linecap:butt;stroke-linejoin:miter;stroke-miterlimit:4;stroke-opacity:1;stroke-dasharray:none"
           d="m 245.24152,968.35906 c -5.23125,7.07758 -10.14118,17.60464 -11.2182,21.60501 -1.23088,-2.61563 -7.88691,-7.95473 -12.9643,-9.95491 0,0 15.41246,-9.80378 24.1825,-11.6501 z"
           id="path4478"
           inkscape:connector-curvature="0"
           sodipodi:nodetypes="cccc" />
      </g>
      <use
         height="100"
         width="300"
         transform="matrix(-1,0,0,-1,500,1999.7244)"
         id="use4484"
         xlink:href="#g4480"
         y="0"
         x="0" />
    </g>
    <text
       xml:space="preserve"
       style="font-size:16px;font-style:normal;font-weight:normal;line-height:125%;letter-spacing:0px;word-spacing:0px;fill:#000000;fill-opacity:1;stroke:none;font-family:Sans"
       x="24.216537"
       y="931.67639"
       id="text4505"
       sodipodi:linespacing="125%"><tspan
         sodipodi:role="line"
         id="tspan4507"
         x="24.216537"
         y="931.67639">delete</tspan></text>
    <text
       xml:space="preserve"
       style="font-size:16px;font-style:normal;font-weight:normal;line-height:125%;letter-spacing:0px;word-spacing:0px;fill:#000000;fill-opacity:1;stroke:none;font-family:Sans"
       x="134.61115"
       y="933.13464"
       id="text4509"
       sodipodi:linespacing="125%"><tspan
         sodipodi:role="line"
         id="tspan4511"
         x="134.61115"
         y="933.13464">add</tspan></text>
    <text
       xml:space="preserve"
       style="font-size:16px;font-style:normal;font-weight:normal;line-height:125%;letter-spacing:0px;word-spacing:0px;fill:#000000;fill-opacity:1;stroke:none;font-family:Sans"
       x="223.36198"
       y="931.99646"
       id="text4513"
       sodipodi:linespacing="125%"><tspan
         sodipodi:role="line"
         id="tspan4515"
         x="223.36198"
         y="931.99646">reverse</tspan></text>
    <text
       xml:space="preserve"
       style="font-size:16px;font-style:normal;font-weight:normal;line-height:125%;letter-spacing:0px;word-spacing:0px;fill:#000000;fill-opacity:1;stroke:none;font-family:Sans"
       x="433.7905"
       y="927.28583"
       id="text4517"
       sodipodi:linespacing="125%"><tspan
         sodipodi:role="line"
         id="tspan4519"
         x="433.7905"
         y="927.28583">save</tspan></text>
    <text
       xml:space="preserve"
       style="font-size:16px;font-style:normal;font-weight:normal;line-height:125%;letter-spacing:0px;word-spacing:0px;fill:#000000;fill-opacity:1;stroke:none;font-family:Sans"
       x="535"
       y="927.36218"
       id="text4521"
       sodipodi:linespacing="125%"><tspan
         sodipodi:role="line"
         id="tspan4523"
         x="535"
         y="927.36218">load</tspan></text>
    <text
       xml:space="preserve"
       style="font-size:16px;font-style:normal;font-weight:normal;line-height:125%;letter-spacing:0px;word-spacing:0px;fill:#000000;fill-opacity:1;stroke:none;font-family:Sans"
       x="342.06122"
       y="928.54584"
       id="text4525"
       sodipodi:linespacing="125%"><tspan
         sodipodi:role="line"
         id="tspan4527"
         x="342.06122"
         y="928.54584">edit</tspan></text>
    <g
       id="g4547"
       transform="matrix(0.80025722,0.59965689,-0.59965689,0.80025722,680.66921,-7.310113)">
      <g
         id="g4697"
         transform="matrix(0,1,-1,0,1510.9205,690.80219)">
        <path
           id="path4792"
           style="font-size:medium;font-style:normal;font-variant:normal;font-weight:normal;font-stretch:normal;text-indent:0;text-align:start;text-decoration:none;line-height:normal;letter-spacing:normal;word-spacing:normal;text-transform:none;direction:ltr;block-progression:tb;writing-mode:lr-tb;text-anchor:start;baseline-shift:baseline;color:#000000;fill:#000000;fill-opacity:1;stroke:none;stroke-width:2;marker:none;visibility:visible;display:inline;overflow:visible;enable-background:accumulate;font-family:Sans;-inkscape-font-specification:Sans"
           d="m 432.43746,1132.9375 2.125,1.3125 -0.625,-2.4062 -5.83762,-22.1458 c -0.36482,-2.3494 -25.59417,-35.3044 -25.59417,-35.3044 0,0 -2.42365,-3.5376 -3.74928,-4.7009 -1.44627,-1.269 -3.98081,-3.1886 -4.82306,-3.1715 -3.97021,0.08 -12.14146,7.6636 -12.54454,9.0231 -0.33389,1.1261 0.81525,3.7626 1.3295,4.9854 0.52639,1.2517 3.67932,5.4168 3.67932,5.4168 4.6958,6.9571 26.3643,35.2037 26.3643,35.2037 0.71444,0.6477 19.67557,11.7873 19.67557,11.7873 z"
           inkscape:connector-curvature="0"
           sodipodi:nodetypes="cccccsssscccc" />
        <path
           style="font-size:medium;font-style:normal;font-variant:normal;font-weight:normal;font-stretch:normal;text-indent:0;text-align:start;text-decoration:none;line-height:normal;letter-spacing:normal;word-spacing:normal;text-transform:none;direction:ltr;block-progression:tb;writing-mode:lr-tb;text-anchor:start;baseline-shift:baseline;color:#000000;fill:#ffffff;fill-opacity:1;stroke:none;stroke-width:1;marker:none;visibility:visible;display:inline;overflow:visible;enable-background:accumulate;font-family:Sans;-inkscape-font-specification:Sans"
           d="m 388.72217,1085.2293 c 1.0977,-1.4692 12.10389,-9.0698 12.10389,-9.0698 5.19341,5.0322 24.84828,33.1606 24.84828,33.1606 l -12.10389,9.0699 c -7.44822,-8.3865 -24.84828,-33.1607 -24.84828,-33.1607 z"
           id="rect4663"
           inkscape:connector-curvature="0" />
        <path
           style="font-size:medium;font-style:normal;font-variant:normal;font-weight:normal;font-stretch:normal;text-indent:0;text-align:start;text-decoration:none;line-height:normal;letter-spacing:normal;word-spacing:normal;text-transform:none;direction:ltr;block-progression:tb;writing-mode:lr-tb;text-anchor:start;baseline-shift:baseline;color:#000000;fill:#ffffff;fill-opacity:1;stroke:none;stroke-width:2;marker:none;visibility:visible;display:inline;overflow:visible;enable-background:accumulate;font-family:Sans;-inkscape-font-specification:Sans"
           d="m 341.375,185.875 4.59375,11.5625 c 1.38724,0.16214 2.0953,-4.13553 5.15625,-1.1875 l 4.1875,-10.28125 z"
           id="path4665"
           inkscape:connector-curvature="0"
           sodipodi:nodetypes="ccccc"
           transform="matrix(0.80025722,-0.59965689,0.59965689,0.80025722,30.763653,1176.1527)" />
        <path
           transform="matrix(0.80025722,-0.59965689,0.59965689,0.80025722,0,0)"
           style="fill:#ffffff;fill-opacity:1;stroke:none"
           d="m -325.74103,1090.5522 c 1.45828,0.3253 1.53686,4.1882 1.53686,4.1882 -2.37847,-0.2561 -15.74264,-0.1464 -15.74264,-0.1464 -0.77034,-0.01 0.4122,-3.3432 1.28063,-3.9525 0.86843,-0.6093 8.76408,-1.0178 12.92515,-0.089 z"
           id="rect4673"
           inkscape:connector-curvature="0"
           sodipodi:nodetypes="scscs" />
        <path
           style="font-size:medium;font-style:normal;font-variant:normal;font-weight:normal;font-stretch:normal;text-indent:0;text-align:start;text-decoration:none;line-height:normal;letter-spacing:normal;word-spacing:normal;text-transform:none;direction:ltr;block-progression:tb;writing-mode:lr-tb;text-anchor:start;baseline-shift:baseline;color:#000000;fill:#ffffff;fill-opacity:1;fill-rule:nonzero;stroke:none;stroke-width:2;marker:none;visibility:visible;display:inline;overflow:visible;enable-background:accumulate;font-family:Sans;-inkscape-font-specification:Sans"
           d="m 385.34296,1081.012 c 0.20073,-0.7635 11.9165,-9.2328 12.54953,-9.1294 0.813,0.1328 2.54881,2.541 2.17376,2.9009 -0.88541,0.8497 -12.20323,9.1719 -12.54954,9.1294 -0.41689,-0.051 -2.27154,-2.5289 -2.17375,-2.9009 z"
           id="rect4669"
           inkscape:connector-curvature="0"
           sodipodi:nodetypes="sssss" />
        <path
           sodipodi:nodetypes="cc"
           inkscape:connector-curvature="0"
           id="path4671"
           d="m 385.39101,1083.0535 14.28751,-10.273"
           style="fill:none;stroke:#000000;stroke-width:1px;stroke-linecap:butt;stroke-linejoin:miter;stroke-opacity:1" />
        <path
           sodipodi:nodetypes="cc"
           inkscape:connector-curvature="0"
           id="path4677"
           d="m 391.30452,1082.7315 c 0.35331,0.4715 26.38125,33.8963 26.38125,33.8963"
           style="fill:none;stroke:#000000;stroke-width:1px;stroke-linecap:butt;stroke-linejoin:miter;stroke-opacity:1" />
        <path
           sodipodi:nodetypes="cc"
           inkscape:connector-curvature="0"
           id="path4679"
           d="m 421.68064,1113.2253 -24.6918,-34.9169"
           style="fill:none;stroke:#000000;stroke-width:1px;stroke-linecap:butt;stroke-linejoin:miter;stroke-opacity:1" />
      </g>
      <use
         x="0"
         y="0"
         xlink:href="#g4697"
         id="use4770"
         transform="matrix(0.67435975,-0.73840296,0.73840296,0.67435975,-749.38302,566.59346)"
         width="700"
         height="100" />
    </g>
    <g
       id="g4657">
      <path
         style="fill:#000000;fill-opacity:1;stroke:#000000;stroke-width:1;stroke-linecap:round;stroke-linejoin:miter;stroke-miterlimit:4;stroke-opacity:1"
         d="m 415,1027.3622 c 17.77721,1.1918 52.01975,0.9533 69.93934,-0.7279 0.99314,0.9931 1.15311,9.8341 0.0607,10.7279 -0.49657,0.4966 -67.91441,0.7945 -70,0 -1.58902,-1.0925 0,-10 0,-10 z"
         id="rect4558"
         inkscape:connector-curvature="0"
         sodipodi:nodetypes="ccccc" />
      <g
         id="g4647">
        <path
           style="fill:#000000;fill-opacity:1;stroke:#000000;stroke-width:1px;stroke-linecap:butt;stroke-linejoin:miter;stroke-opacity:1"
           d="m 450.11715,1022.5751 -18.46176,-16.8572 29.47532,-5.5861 z"
           id="path4560"
           inkscape:connector-curvature="0"
           sodipodi:nodetypes="cccc" />
        <path
           sodipodi:nodetypes="ccccc"
           inkscape:connector-curvature="0"
           id="path4627"
           d="m 451.18431,960 c -13.02887,6.76026 -14.05659,24.68035 -7.37117,49.2622 l 8.68686,-2.0434 c -8.04929,-20.97959 -0.94817,-31.14488 10.06378,-37.76217 z"
           style="font-size:medium;font-style:normal;font-variant:normal;font-weight:normal;font-stretch:normal;text-indent:0;text-align:start;text-decoration:none;line-height:normal;letter-spacing:normal;word-spacing:normal;text-transform:none;direction:ltr;block-progression:tb;writing-mode:lr-tb;text-anchor:start;baseline-shift:baseline;color:#000000;fill:#000000;fill-opacity:1;stroke:none;stroke-width:10;marker:none;visibility:visible;display:inline;overflow:visible;enable-background:accumulate;font-family:Sans;-inkscape-font-specification:Sans" />
      </g>
    </g>
    <g
       id="g4839">
      <g
         transform="translate(-1.5510204,0)"
         id="g4643">
        <path
           sodipodi:nodetypes="cccc"
           inkscape:connector-curvature="0"
           id="path4633"
           d="m 536.4341,966.15783 24.39865,5.45048 -22.79945,19.49832 z"
           style="fill:#000000;fill-opacity:1;stroke:#000000;stroke-width:1px;stroke-linecap:butt;stroke-linejoin:miter;stroke-opacity:1" />
        <path
           style="font-size:medium;font-style:normal;font-variant:normal;font-weight:normal;font-stretch:normal;text-indent:0;text-align:start;text-decoration:none;line-height:normal;letter-spacing:normal;word-spacing:normal;text-transform:none;direction:ltr;block-progression:tb;writing-mode:lr-tb;text-anchor:start;baseline-shift:baseline;color:#000000;fill:#000000;fill-opacity:1;stroke:none;stroke-width:10;marker:none;visibility:visible;display:inline;overflow:visible;enable-background:accumulate;font-family:Sans;-inkscape-font-specification:Sans"
           d="m 560.79351,1022.3788 c 9.5193,-11.1731 3.71594,-28.15853 -11.74278,-48.40671 l -7.27572,5.1673 c 15.36405,16.39754 12.61879,28.48981 4.91372,38.77011 z"
           id="path4635"
           inkscape:connector-curvature="0"
           sodipodi:nodetypes="ccccc" />
      </g>
      <path
         style="fill:#000000;fill-opacity:1;stroke:none"
         d="m 515.19863,1026.1704 c 10.4494,1.4784 68.11303,0.7946 70.39725,-0.3972 1.29108,3.5753 0.19863,10.6952 -0.59588,11.589 -0.49657,0.8938 -67.36368,1.2418 -70.99314,0.3973 0.59588,-2.4829 1.58902,-8.411 1.19177,-11.5891 z"
         id="rect4621"
         inkscape:connector-curvature="0"
         sodipodi:nodetypes="ccccc" />
    </g>
    <path
       style="fill:#000000;fill-opacity:1;stroke:none"
       d="m 720.02498,997.74464 c 8.65601,0.98158 56.42308,0.52758 58.31525,-0.26371 1.06951,2.37379 0.16452,7.10087 -0.49363,7.69427 -0.41129,0.5935 -55.8023,0.8245 -58.80885,0.2638 0.49361,-1.6485 1.3163,-5.58428 0.98723,-7.69436 z"
       id="path4832"
       inkscape:connector-curvature="0"
       sodipodi:nodetypes="ccccc" />
    <g
       id="g4845">
      <path
         sodipodi:nodetypes="ccscccccccscsc"
         inkscape:connector-curvature="0"
         id="path4826"
         d="m 651.03125,963.83093 c -5.4308,0.012 -7.87403,2.27196 -6.65625,6.28696 -3.36128,0.46835 -19.22803,-0.30322 -23.91732,2.13517 -2.15646,1.12134 -1.30749,4.44066 -0.52018,6.95287 1.57292,0 4.05497,-0.11364 5.62789,-0.11364 1.67018,19.99969 1.67984,39.87441 3.93015,60.03321 14.27381,-0.6428 27.02083,-0.8035 41.53571,0.08 0,0 1.06888,-1.234 1.2278,-2.3688 1.60859,-19.3443 2.9704,-38.68461 4.57899,-58.02892 1.55208,0 3.67238,0.39775 5.22446,0.39775 1.01203,-2.47948 2.51835,-6.93712 -0.51317,-7.95574 -6.14935,-2.06625 -24.42828,-1.09611 -24.42828,-1.09611 1.57739,-5.96539 -1.77105,-6.33267 -6.0898,-6.32315 z"
         style="font-size:medium;font-style:normal;font-variant:normal;font-weight:normal;font-stretch:normal;text-indent:0;text-align:start;text-decoration:none;line-height:normal;letter-spacing:normal;word-spacing:normal;text-transform:none;direction:ltr;block-progression:tb;writing-mode:lr-tb;text-anchor:start;baseline-shift:baseline;color:#000000;fill:#000000;fill-opacity:1;stroke:none;stroke-width:3;marker:none;visibility:visible;display:inline;overflow:visible;enable-background:accumulate;font-family:Sans;-inkscape-font-specification:Sans" />
      <path
         sodipodi:nodetypes="ccccc"
         inkscape:connector-curvature="0"
         id="path4725"
         d="m 627.65625,979.12261 c 1.0796,-0.62503 45.17219,-2.61787 46.36543,-0.91324 l -4.36543,58.00943 c 0,0 -23.66965,-1.4464 -37.25,0.3214 -3.13393,-23.2232 -4.75,-57.41759 -4.75,-57.41759 z"
         style="font-size:medium;font-style:normal;font-variant:normal;font-weight:normal;font-stretch:normal;text-indent:0;text-align:start;text-decoration:none;line-height:normal;letter-spacing:normal;word-spacing:normal;text-transform:none;direction:ltr;block-progression:tb;writing-mode:lr-tb;text-anchor:start;baseline-shift:baseline;color:#000000;fill:#ffffff;fill-opacity:1;stroke:none;stroke-width:3;marker:none;visibility:visible;display:inline;overflow:visible;enable-background:accumulate;font-family:Sans;-inkscape-font-specification:Sans" />
      <path
         sodipodi:nodetypes="sccss"
         inkscape:connector-curvature="0"
         id="path4727"
         d="m 679.37606,972.92272 c 1.10143,0.43172 2.31646,1.96103 0.90904,3.55832 -12.30614,-1.34599 -37.47398,-0.94414 -58.12322,0.64685 -0.69951,-1.58416 0.35196,-3.5508 2.09655,-3.74439 9.0375,-1.00283 49.72756,-2.57347 55.11763,-0.46078 z"
         style="font-size:medium;font-style:normal;font-variant:normal;font-weight:normal;font-stretch:normal;text-indent:0;text-align:start;text-decoration:none;line-height:normal;letter-spacing:normal;word-spacing:normal;text-transform:none;direction:ltr;block-progression:tb;writing-mode:lr-tb;text-anchor:start;baseline-shift:baseline;color:#000000;fill:#ffffff;fill-opacity:1;stroke:none;stroke-width:3;marker:none;visibility:visible;display:inline;overflow:visible;enable-background:accumulate;font-family:Sans;-inkscape-font-specification:Sans" />
      <path
         sodipodi:nodetypes="ssccss"
         inkscape:connector-curvature="0"
         id="path4729"
         d="m 650.57668,965.50282 c 1.29017,1.3e-4 3.10882,-0.27886 4.18738,0.43928 1.23986,0.82554 0.92657,3.56148 0.57969,4.2454 -2.875,0 -5.75,0 -8.625,0 -0.37279,-0.74773 -0.54875,-1.61413 -0.42272,-2.44858 0.20636,-1.36623 2.99307,-2.23623 4.28065,-2.2361 z"
         style="font-size:medium;font-style:normal;font-variant:normal;font-weight:normal;font-stretch:normal;text-indent:0;text-align:start;text-decoration:none;line-height:normal;letter-spacing:normal;word-spacing:normal;text-transform:none;direction:ltr;block-progression:tb;writing-mode:lr-tb;text-anchor:start;baseline-shift:baseline;color:#000000;fill:#ffffff;fill-opacity:1;stroke:none;stroke-width:2;marker:none;visibility:visible;display:inline;overflow:visible;enable-background:accumulate;font-family:Sans;-inkscape-font-specification:Sans" />
      <path
         sodipodi:nodetypes="cc"
         inkscape:connector-curvature="0"
         id="path4731"
         d="m 633.3903,982.92341 3.65689,50.75889"
         style="fill:none;stroke:#000000;stroke-width:1px;stroke-linecap:round;stroke-linejoin:miter;stroke-opacity:1" />
      <path
         sodipodi:nodetypes="cc"
         inkscape:connector-curvature="0"
         id="path4733"
         d="m 644.45281,1033.0561 -3.41199,-50.5179"
         style="fill:none;stroke:#000000;stroke-width:1px;stroke-linecap:round;stroke-linejoin:miter;stroke-opacity:1" />
      <path
         sodipodi:nodetypes="cc"
         inkscape:connector-curvature="0"
         id="path4735"
         d="m 651.08928,981.89407 -0.45026,51.32273"
         style="fill:none;stroke:#000000;stroke-width:1px;stroke-linecap:round;stroke-linejoin:miter;stroke-opacity:1" />
      <path
         sodipodi:nodetypes="cc"
         inkscape:connector-curvature="0"
         id="path4737"
         d="m 658.30356,1033.4247 2.57654,-51.27298"
         style="fill:none;stroke:#000000;stroke-width:1px;stroke-linecap:round;stroke-linejoin:miter;stroke-opacity:1" />
      <path
         sodipodi:nodetypes="cc"
         inkscape:connector-curvature="0"
         id="path4739"
         d="m 668.48086,981.89407 -2.91708,51.86863"
         style="fill:none;stroke:#000000;stroke-width:1px;stroke-linecap:round;stroke-linejoin:miter;stroke-opacity:1" />
    </g>
    <text
       xml:space="preserve"
       style="font-size:16px;font-style:normal;font-weight:normal;line-height:125%;letter-spacing:0px;word-spacing:0px;fill:#000000;fill-opacity:1;stroke:none;font-family:Sans"
       x="625.5816"
       y="929.20398"
       id="text4741"
       sodipodi:linespacing="125%"><tspan
         sodipodi:role="line"
         x="625.5816"
         y="929.20398"
         id="tspan4745">trash</tspan></text>
    <text
       sodipodi:linespacing="125%"
       id="text4862"
       y="928.76215"
       x="719.07098"
       style="font-size:16px;font-style:normal;font-weight:normal;line-height:125%;letter-spacing:0px;word-spacing:0px;fill:#000000;fill-opacity:1;stroke:none;font-family:Sans"
       xml:space="preserve"><tspan
         y="928.76215"
         x="719.07098"
         id="tspan4864"
         sodipodi:role="line">subtract</tspan></text>
  </g>
</svg>
